PathFileType	4	(X/Y/Z)	s11c0201.trc
DataRate	CameraRate	NumFrames	NumMarkers	Units	OrigDataRate	OrigDataStartFrame	OrigNumFrames
200	200	4	48	mm	200	1250	2000
Frame#	Time	racr			lacr			c7			jug			rlel			rdr			llel			ldr			s2			lic			ric			lasi			rasi			rpsi			lpsi			rgt			lgt			rth1			rth2			rth3			rth4			rlfc			rmfc			rsh1			rsh2			rsh3			rsh4			rlmal			rcal			rtoe			rmt5			lth1			lth2			lth4			lth3			llfc			lmfc			llmal			lcal			lmt5			lsh1			lsh2			lsh3			lsh4			ltoe			SBIKE			LBIKE			RBIKE			
		X1	Y1	Z1	X2	Y2	Z2	X3	Y3	Z3	X4	Y4	Z4	X5	Y5	Z5	X6	Y6	Z6	X7	Y7	Z7	X8	Y8	Z8	X9	Y9	Z9	X10	Y10	Z10	X11	Y11	Z11	X12	Y12	Z12	X13	Y13	Z13	X14	Y14	Z14	X15	Y15	Z15	X16	Y16	Z16	X17	Y17	Z17	X18	Y18	Z18	X19	Y19	Z19	X20	Y20	Z20	X21	Y21	Z21	X22	Y22	Z22	X23	Y23	Z23	X24	Y24	Z24	X25	Y25	Z25	X26	Y26	Z26	X27	Y27	Z27	X28	Y28	Z28	X29	Y29	Z29	X30	Y30	Z30	X31	Y31	Z31	X32	Y32	Z32	X33	Y33	Z33	X34	Y34	Z34	X35	Y35	Z35	X36	Y36	Z36	X37	Y37	Z37	X38	Y38	Z38	X39	Y39	Z39	X40	Y40	Z40	X41	Y41	Z41	X42	Y42	Z42	X43	Y43	Z43	X44	Y44	Z44	X45	Y45	Z45	X46	Y46	Z46	X47	Y47	Z47	X48	Y48	Z48	
1250	6.2500	508.481392	1333.427533	-101.478132	511.682670	1361.867958	-407.045501	465.848748	1433.675764	-250.305309	454.235827	1249.509802	-264.433920	557.488624	1108.575899	55.075053	760.738078	968.046020	-82.315458	508.065683	1111.041323	-584.829010	764.321324	962.349336	-471.809696	-114.363193	1208.330950	-248.435912	90.494875	1233.656277	-467.235909	117.943711	1207.808883	-55.179586	126.990141	1158.301205	-445.426961	133.865250	1153.724466	-106.491533	-64.093464	1276.002024	-196.799498	-70.332368	1273.436898	-294.189561	90.392992	1079.746572	-46.738309	15.169491	1079.317120	-464.880004	0.000000	0.000000	-0.000000	0.000000	0.000000	-0.000000	374.969319	961.049522	-96.836088	316.465253	1045.757716	-93.900634	468.794827	904.744849	-123.188719	452.605605	881.880893	-255.958857	366.964231	785.013174	-100.691753	320.769301	709.758664	-113.157204	246.669868	665.760026	-106.534862	340.118962	693.516982	-143.920219	143.338045	583.549277	-107.663379	90.800577	617.944943	-155.827912	240.235343	373.210626	-149.686102	177.813476	412.789743	-79.952196	112.194913	955.122275	-479.632446	174.142409	896.762667	-471.098441	205.782249	915.165281	-465.166797	199.419003	810.939962	-460.894694	269.915294	690.427831	-435.444737	271.887645	679.102955	-308.176076	198.032134	258.141684	-428.012174	153.460284	200.806589	-392.426462	362.327502	201.791762	-457.255910	246.038104	568.663496	-458.864482	257.794181	484.541013	-446.009767	226.847008	401.923977	-445.116958	286.908624	484.198801	-421.052678	446.740257	251.228844	-386.224945	-215.585446	956.689078	-256.883059	-17.824572	80.668261	-461.005001	-17.816911	80.841634	-62.161173	
1251	6.2550	507.985536	1332.215379	-98.815582	512.446882	1362.025702	-405.724322	465.959230	1433.178588	-248.295429	454.356819	1249.045008	-262.924459	556.959832	1108.316747	57.008198	760.681310	968.517656	-81.307905	509.193289	1111.769992	-584.746817	764.734930	962.160668	-471.283507	-110.885659	1207.891107	-253.072549	93.181888	1233.512982	-469.345817	116.088733	1208.530391	-55.522474	128.878541	1158.473504	-446.357417	131.486326	1155.721820	-107.828540	-64.458801	1276.794536	-199.779418	-69.476997	1273.792717	-297.584666	89.104377	1082.863364	-47.002165	15.272114	1078.458716	-465.793094	0.000000	0.000000	-0.000000	0.000000	0.000000	-0.000000	376.583864	968.021812	-96.963625	316.302875	1052.119647	-93.538190	472.712697	914.372653	-123.754997	457.996680	892.451658	-256.370522	372.755732	794.160637	-101.055534	326.877448	718.790816	-113.525813	253.082507	674.267402	-106.665465	346.336570	702.392945	-144.343458	150.230627	591.175816	-107.750573	97.415170	625.341452	-155.620204	248.461951	381.531034	-149.940335	185.780550	420.872114	-80.124361	108.564138	952.142424	-480.122203	169.089129	892.249914	-471.480476	201.173309	909.971519	-465.432942	192.128792	805.799882	-461.315301	260.515801	684.678625	-435.025439	260.528903	673.387792	-306.995230	190.003118	252.613382	-427.195401	145.578388	195.000498	-391.742721	354.267253	194.586641	-457.172796	236.478783	563.117672	-458.514188	248.691708	478.882773	-445.638161	217.944181	396.130111	-444.637643	277.718567	478.732899	-420.676201	439.168470	243.585056	-386.463330	-215.609858	956.645925	-257.083825	-17.831482	80.648527	-460.997255	-17.824031	80.858748	-62.178932	
1252	6.2600	507.436519	1331.454502	-96.048652	513.164972	1362.097056	-404.392593	466.005266	1432.821179	-246.250114	454.468936	1248.693759	-261.081007	556.295111	1108.123445	58.702062	760.413080	968.832471	-80.343222	510.182067	1112.446147	-584.781081	765.002678	961.923780	-470.922275	-109.918851	1208.336929	-256.602459	95.486376	1233.090538	-470.901140	114.117883	1209.567296	-55.802232	130.696836	1158.400813	-446.994906	129.285680	1158.098652	-109.140598	-63.944813	1277.184718	-204.067645	-68.910635	1274.003852	-300.441966	87.889305	1086.169180	-47.212045	15.317277	1077.504667	-466.615836	0.000000	0.000000	-0.000000	0.000000	0.000000	-0.000000	377.386132	976.152045	-96.257462	316.297236	1058.631000	-93.282783	476.142828	924.337636	-123.895617	463.783276	901.978983	-255.428313	378.505494	803.211731	-101.381286	333.066377	727.659965	-113.851535	259.524971	682.660726	-106.879927	352.471775	711.353557	-144.896527	157.385749	598.300306	-107.903118	103.973256	631.930759	-155.816776	257.241590	389.395375	-150.188929	194.169632	428.190445	-80.433579	104.959413	949.384745	-480.720328	164.177445	888.204888	-472.094603	196.642979	905.129749	-465.935283	185.181761	801.298893	-461.811214	251.599330	679.720593	-434.613199	250.001370	668.611475	-306.069108	181.891301	247.794221	-426.409500	137.398098	190.190270	-391.137291	346.129629	187.770573	-456.994446	226.919598	558.027571	-458.408680	239.227803	473.828597	-445.613015	208.472327	391.028806	-444.460539	268.371046	473.590153	-420.735484	431.529145	236.127154	-386.759633	-215.631713	956.666723	-257.270739	-17.827744	80.638555	-461.029205	-17.838765	80.850322	-62.188961	
1253	6.2650	506.849374	1330.540383	-93.404514	513.842819	1362.077332	-403.101276	466.002599	1432.439157	-244.227778	454.461086	1248.333551	-259.397737	555.503357	1108.065780	60.218892	760.046850	969.191634	-79.531415	511.136034	1113.124176	-584.911826	765.190744	961.633879	-470.625902	-109.462385	1208.625421	-259.616405	97.643156	1232.570359	-471.932985	112.165414	1210.622350	-56.166458	132.427696	1158.175736	-447.426097	127.289450	1159.961287	-110.463748	-61.596861	1276.670841	-209.633698	-68.278757	1274.338937	-303.248441	86.882592	1089.443248	-47.206002	15.266461	1076.607066	-467.459689	0.000000	0.000000	-0.000000	0.000000	0.000000	-0.000000	378.416793	983.714591	-96.316792	316.319775	1065.089169	-92.906654	479.139873	933.885891	-123.374119	468.753124	912.081652	-255.608275	384.194694	812.128999	-101.718168	339.322153	736.332906	-114.152752	266.124072	690.776627	-107.154832	357.649495	720.706434	-144.886658	164.687541	604.893263	-108.012160	110.474458	637.818709	-156.160188	266.581012	397.417676	-150.245657	203.119293	435.242909	-80.778382	101.459578	946.890709	-481.472918	159.480808	884.484705	-472.996583	192.277301	900.931353	-466.637484	178.760106	797.221651	-462.367776	243.191926	675.534433	-434.504859	240.769281	664.934317	-305.422856	173.734477	243.472304	-425.758607	129.015442	186.269024	-390.466259	337.535746	181.670876	-456.751671	217.600624	553.427086	-458.396777	229.832090	469.291921	-445.665751	198.977727	386.585411	-444.297854	259.313641	468.888894	-421.135196	423.706529	228.870384	-386.635275	-215.673291	956.652458	-257.393211	-17.857255	80.637584	-461.020671	-17.841209	80.859949	-62.203239	
